<?xml version="1.0" encoding="UTF-8" standalone="no"?>
<!-- Created with Inkscape (http://www.inkscape.org/) -->

<svg
   width="200"
   height="200"
   viewBox="0 0 52.916666 52.916666"
   version="1.1"
   id="svg5"
   xmlns="http://www.w3.org/2000/svg"
   xmlns:svg="http://www.w3.org/2000/svg">
  <defs
     id="defs2" />
  <g
     id="layer1">
    <g
       aria-label="W"
       id="text1464"
       style="font-size:44.2407px;line-height:1.25;letter-spacing:0px;word-spacing:0px;stroke-width:1.10602"
       transform="matrix(1.1116484,0,0,1.1116484,-3.3930172,-3.1130485)">
      <path
         d="m 44.119922,11.735324 q 1.017536,0 1.94659,0.796333 0.929055,0.752092 0.929055,2.079313 0,0.398166 -0.132722,0.884814 L 38.147427,41.15539 q -0.265444,0.796332 -0.973295,1.238739 -0.663611,0.398167 -1.415703,0.442407 -0.752092,0 -1.504183,-0.442407 -0.707852,-0.442407 -1.106018,-1.28298 l -6.547623,-14.864875 0.398166,0.265444 -6.459142,14.599431 q -0.398167,0.840573 -1.150259,1.28298 -0.707851,0.442407 -1.459943,0.442407 -0.707851,-0.04424 -1.415702,-0.442407 Q 15.805874,41.951722 15.54043,41.15539 L 6.8250117,15.495784 Q 6.6922896,15.009136 6.6922896,14.61097 q 0,-1.327221 0.9290547,-2.079313 0.9732954,-0.796333 1.9908315,-0.796333 0.8405732,0 1.5484242,0.442407 0.752092,0.442407 1.017536,1.282981 l 7.034272,21.324017 -0.973296,-0.04424 6.28218,-15.086078 q 0.353925,-0.796333 1.017536,-1.23874 0.66361,-0.486648 1.504184,-0.442407 0.840573,-0.04424 1.504183,0.442407 0.663611,0.442407 0.973296,1.23874 l 5.751291,14.422468 -0.707852,0.442407 6.94579,-21.058573 q 0.265445,-0.840574 1.017536,-1.282981 0.752092,-0.442407 1.592666,-0.442407 z"
         style="font-weight:bold;font-family:Quicksand;-inkscape-font-specification:'Quicksand Bold';fill:#ffffff"
         id="path4951" />
    </g>
    <circle
       style="fill:#ffffff;fill-opacity:1;stroke:none;stroke-width:1.75461"
       id="path4646"
       cx="26.446108"
       cy="13.950488"
       r="7.1428757" />
  </g>
</svg>
